<svg fill="none" height="27" width="27" xmlns="http://www.w3.org/2000/svg"><clipPath id="a"><path d="M0 .05h26.739v26.74H0z"/></clipPath><g clip-path="url(#a)" fill="#5b9724"><path d="M13.368 5.689a4.743 4.743 0 0 0-4.738 4.738c0 2.612 2.125 4.738 4.738 4.738s4.738-2.126 4.738-4.738a4.743 4.743 0 0 0-4.738-4.738z"/><path d="M23.236 13.633L21.8 10.427l1.436-3.207-3.047-1.75-.722-3.438-3.494.376L13.368.05l-2.606 2.358-3.493-.376-.723 3.439L3.5 7.22l1.437 3.206L3.5 13.632l3.047 1.75.392 1.863-3.253 6.911 3.395.045 2.197 2.587 3.198-6.794.893.808.893-.808 3.197 6.794 2.198-2.587 3.395-.045-3.253-6.911.392-1.863zm-9.868 3.098a6.311 6.311 0 0 1-6.305-6.304 6.311 6.311 0 0 1 6.305-6.305 6.312 6.312 0 0 1 6.304 6.305 6.312 6.312 0 0 1-6.304 6.304z"/></g></svg>