<svg fill="none" height="27" width="27" xmlns="http://www.w3.org/2000/svg"><clipPath id="a"><path d="M.216 0h26.739v26.739H.215z"/></clipPath><g clip-path="url(#a)"><path d="M24.471 10.893h-.378v-.386C24.093 4.713 19.379 0 13.586 0 7.792 0 3.079 4.713 3.079 10.507v.386h-.38a2.418 2.418 0 0 0-2.415 2.415v3.534A2.418 2.418 0 0 0 2.7 19.257h1.347a.622.622 0 0 0 .57-.376c1.595 3.174 3.916 5.272 4.07 5.41a.44.44 0 0 0 .292.11h.002a.44.44 0 0 0 .41-.603 9.926 9.926 0 0 1-.057-.212c1.085 1.363 2.25 2.168 3.133 2.63a4.61 4.61 0 0 0 2.13.523 4.6 4.6 0 0 0 2.129-.523c.844-.441 1.943-1.198 2.985-2.45a6.15 6.15 0 0 0 3.907-4.509h.853a2.418 2.418 0 0 0 2.416-2.415v-3.534a2.418 2.418 0 0 0-2.416-2.416zM5.081 6.838c1.424-3.288 4.7-5.595 8.504-5.595 4.195 0 7.745 2.803 8.882 6.634-.496-.477-1.038-.75-1.515-.847-.338-.964-.836-1.561-.946-1.686-.208-.28-2.146-2.732-6.117-2.732-1.36 0-2.814.295-4.32.877-1.074.415-3.015 1.385-4.488 3.35zm11.236 18.599a3.726 3.726 0 0 1-3.442 0c-1.082-.567-2.628-1.702-3.85-3.893-.024-.043-.047-.088-.07-.132-.163-1.678-.047-3.804 1.286-4.923 1.032-.867 2.77-1.27 4.45-1.66 2.103-.489 4.265-.992 5.457-2.416.374.35.69.797.815 1.355.427 1.901-.121 3.53-.129 3.553a.44.44 0 0 0 .653.516c-.276 1.29-.693 2.585-1.319 3.707a11.28 11.28 0 0 1-.581.931 4.853 4.853 0 0 1-1.967.415h-.644a1.786 1.786 0 0 0-1.671-1.163h-1.7c-.984 0-1.785.8-1.785 1.785s.801 1.785 1.785 1.785h1.7c.765 0 1.418-.485 1.671-1.164h.644c.19 0 .377-.009.562-.025a8.632 8.632 0 0 1-1.865 1.329zm5.03-4.28c.561-1.235.924-2.586 1.156-3.892v.742a4.86 4.86 0 0 1-1.156 3.15z" fill="#5b9724"/></g></svg>