<svg fill="none" height="26" width="40" xmlns="http://www.w3.org/2000/svg"><path d="M14.785 18.5c-1.842 0-3.33 1.68-3.33 3.75 0 2.063 1.488 3.742 3.33 3.742s3.33-1.68 3.33-3.743c0-2.07-1.488-3.748-3.33-3.748zm0 5.62c-.92 0-1.665-.842-1.665-1.87 0-1.036.744-1.872 1.665-1.872s1.665.836 1.665 1.871c0 1.029-.744 1.871-1.665 1.871zm25.118-8.388v3.996c0 .997-.72 1.805-1.606 1.805h-1.72c-.31-2.394-2.146-4.235-4.363-4.235-2.211 0-4.048 1.84-4.358 4.235h-8.711c-.311-2.394-2.147-4.235-4.359-4.235s-4.048 1.84-4.358 4.235H8.276c-.888 0-1.607-.808-1.607-1.805v-3.996zm-7.684 2.769c-1.842 0-3.336 1.678-3.336 3.748 0 2.064 1.494 3.743 3.336 3.743 1.836 0 3.33-1.68 3.33-3.743 0-2.07-1.494-3.748-3.33-3.748zm0 5.62c-.922 0-1.666-.843-1.666-1.872 0-1.035.744-1.871 1.665-1.871.916 0 1.666.836 1.666 1.871 0 1.029-.75 1.871-1.665 1.871zm7.05-12.413l-6.312-7.015c-.401-.445-.942-.698-1.504-.698h-3.186V2.653c0-.999-.717-1.805-1.606-1.805H8.274c-.883 0-1.606.806-1.606 1.805v.283L.15 3.78 11.7 5.47 0 6.776 11.659 8.64 0 9.775l6.669 1.413v3.547h33.233v-1.318c0-.644-.23-1.258-.632-1.709zm-2.751.235h-6.11c-.139 0-.25-.127-.25-.283v-5.3c0-.157.111-.283.25-.283h1.163c.064 0 .128.03.176.078l4.942 5.3c.166.175.054.488-.171.488z" fill="#5b9724"/></svg>