<svg fill="none" height="27" width="27" xmlns="http://www.w3.org/2000/svg"><clipPath id="a"><path d="M0 0h26.739v26.739H0z"/></clipPath><g clip-path="url(#a)" fill="#5b9724"><path d="M17.991 11.02l-2.693-4.7h-3.77l-2.448 4.7zM8.94 12.586l4.413 12.036 5.067-12.036zm-8.94 0l12.444 14.153.009-.02-5.197-14.133zM9.762 6.32H3.55L0 11.02h7.313zm10.036 4.7h6.941l-3.55-4.7h-6.084zm-5.643 15.626l.036.093L26.74 12.586h-6.598zM12.586 0h1.567v2.35h-1.567zM9.255 1.833L10.822 3.4 9.714 4.507 8.147 2.941zm8.292 0l1.108 1.108-1.566 1.566L15.98 3.4z"/></g></svg>