<svg fill="none" height="27" width="27" xmlns="http://www.w3.org/2000/svg"><clipPath id="a"><path d="M0 0h26.739v26.739H0z"/></clipPath><g clip-path="url(#a)" fill="#5b9724"><path d="M10.853 9.96a.868.868 0 0 0-1.735 0 .868.868 0 0 0 1.735 0zm5.9 5.952a.868.868 0 0 0 0 1.734.868.868 0 0 0 0-1.734z"/><path d="M25.507 13.561a.54.54 0 0 1 0-.384l1.205-3.136a.403.403 0 0 0-.123-.459l-2.613-2.114a.534.534 0 0 1-.192-.332l-.527-3.32a.403.403 0 0 0-.336-.334l-3.32-.528a.533.533 0 0 1-.331-.192L17.155.15a.403.403 0 0 0-.458-.124L13.56 1.23a.537.537 0 0 1-.384 0L10.04.027a.403.403 0 0 0-.458.124L7.468 2.76a.534.534 0 0 1-.332.192l-3.32.527a.405.405 0 0 0-.334.336l-.528 3.32a.531.531 0 0 1-.192.33L.15 9.582a.403.403 0 0 0-.124.458l1.204 3.14a.532.532 0 0 1 0 .383L.027 16.699a.403.403 0 0 0 .124.458l2.612 2.113a.534.534 0 0 1 .192.333l.527 3.318a.404.404 0 0 0 .336.336l3.32.528a.53.53 0 0 1 .331.191l2.115 2.612c.11.137.295.186.458.124l3.138-1.205a.549.549 0 0 1 .388.002l3.133 1.203a.404.404 0 0 0 .459-.123l2.11-2.612a.531.531 0 0 1 .333-.192l3.32-.528a.404.404 0 0 0 .334-.336l.528-3.32a.533.533 0 0 1 .192-.33l2.612-2.115a.403.403 0 0 0 .124-.459zM7.551 9.96a2.437 2.437 0 0 1 2.434-2.434A2.437 2.437 0 0 1 12.42 9.96a2.437 2.437 0 0 1-2.434 2.434A2.437 2.437 0 0 1 7.552 9.96zm3.314 6.922a.78.78 0 0 1-1.107 0 .783.783 0 0 1 0-1.108L16.09 9.45a.783.783 0 1 1 1.108 1.108zm5.888 2.332a2.437 2.437 0 0 1-2.434-2.434 2.437 2.437 0 0 1 2.434-2.434 2.437 2.437 0 0 1 2.434 2.434 2.437 2.437 0 0 1-2.434 2.434z"/></g></svg>