<svg fill="none" height="22" width="24" xmlns="http://www.w3.org/2000/svg"><path d="M23.167 9.5h-.485s-2.549-4.885-2.573-4.917a.726.726 0 0 0-.624-.356h-6.03V1.41c0-.502-.377-.909-.88-.909h-1.181c-.502 0-.94.407-.94.91v2.817H4.576a.726.726 0 0 0-.624.356C3.927 4.615 1.378 9.5 1.378 9.5H.985c-.5 0-.985.364-.985.864v.59a4.5 4.5 0 1 0 9 0v-.59c0-.5-.333-.864-.833-.864h-.485L5.694 5.682h4.76V18.5h-5.06c-.502 0-.94.407-.94.91v1.18c0 .503.438.91.94.91h13.182c.502 0 .878-.407.878-.91v-1.18c0-.503-.376-.91-.878-.91h-5.122V5.682h4.912L16.378 9.5h-.393c-.5 0-.985.364-.985.864v.59a4.5 4.5 0 1 0 9 0v-.59c0-.5-.333-.864-.833-.864zm-17.125 0H3.018L4.53 6.596zm11.976 0l1.512-2.904L21.042 9.5z" fill="silver"/></svg>