<svg fill="none" height="18" width="18" xmlns="http://www.w3.org/2000/svg"><path d="M17.991 14.203a.87.87 0 0 1-.266.762L15.19 17.48a1.427 1.427 0 0 1-.448.324 1.85 1.85 0 0 1-.543.172 2.568 2.568 0 0 1-.362.02c-.241 0-.632-.042-1.172-.125s-1.2-.286-1.981-.61c-.782-.324-1.668-.81-2.658-1.457s-2.046-1.537-3.164-2.668c-.889-.877-1.626-1.715-2.21-2.515-.584-.8-1.055-1.54-1.41-2.22a11.957 11.957 0 0 1-.8-1.849 9.807 9.807 0 0 1-.363-1.429c-.063-.4-.089-.714-.076-.943.013-.229.02-.356.02-.381.025-.178.082-.359.17-.543s.198-.334.325-.448L3.052.274a.84.84 0 0 1 .61-.267A.71.71 0 0 1 4.1.15c.127.095.235.213.324.352l2.039 3.869a.927.927 0 0 1 .095.666 1.18 1.18 0 0 1-.324.61l-.933.934a.318.318 0 0 0-.067.124.47.47 0 0 0-.029.143c.051.266.165.571.343.914.153.305.388.677.705 1.115s.769.943 1.353 1.515c.572.584 1.08 1.039 1.525 1.363.444.323.816.562 1.114.714.299.153.528.245.686.276l.239.048c.025 0 .066-.01.123-.029a.318.318 0 0 0 .124-.066l1.086-1.106c.23-.203.496-.305.8-.305.217 0 .388.039.515.115h.02l3.677 2.172c.267.165.426.375.476.63z" fill="#5b9724"/></svg>