<svg fill="none" height="10" width="15" xmlns="http://www.w3.org/2000/svg"><path d="M14.401 1.353c.225.049.3.317.203.5-.066.128-.14.253-.211.378a.266.266 0 0 1-.123.22 21.327 21.327 0 0 1-2.172 3.141c-.003.003-.009.006-.012.012.947.652 3.21 2.32 2.104 3.258-.578.493-2.255.41-2.905.131-.373-.16-.712-.442-1.032-.693-.555-.436-.712-.41-1.211.054-.641.6-.998.978-1.944.87-1.112-.128-2.18-.747-3.03-1.443C2.283 6.313.678 3.848.199 1.576c-.037-.177.114-.314.26-.317l.02-.008a9.84 9.84 0 0 1 2.713-.094.34.34 0 0 1 .194.085.153.153 0 0 1 .069.049c.695.818 1.003 1.898 1.727 2.693.35.385.465.323.502-.208.017-.228.017-.456.006-.684-.035-.596-.251-1.117-.342-1.696a.317.317 0 0 1 .04-.22.315.315 0 0 1 .265-.259c.846-.111 1.741-.008 2.6-.034a.262.262 0 0 1 .29.1c.06.017.114.06.131.137.126.53.114 1.037.106 1.579l-.017.764c-.006.145-.006.29-.006.436-.057.268.048.37.314.308.447.048.57-.322.79-.664.13-.203.256-.41.375-.622.28-.496.488-1.017.747-1.522a.26.26 0 0 1 .208-.148.227.227 0 0 1 .089-.026c1.02-.023 2.118-.085 3.121.128z" fill="#5b9724"/></svg>