<svg fill="none" height="14" width="14" xmlns="http://www.w3.org/2000/svg"><path d="M2.397.862h9.207c.874 0 1.59.716 1.59 1.59v9.207c0 .875-.716 1.59-1.59 1.59H2.397c-.875 0-1.59-.716-1.59-1.59V2.452c0-.874.715-1.59 1.59-1.59zM9.83 2.238a.56.56 0 0 0-.557.558v1.335c0 .307.25.558.557.558h1.4a.56.56 0 0 0 .558-.558V2.796a.56.56 0 0 0-.558-.558zM11.793 6.1h-1.09c.104.338.16.694.16 1.064 0 2.06-1.725 3.73-3.851 3.73s-3.85-1.67-3.85-3.73c0-.37.056-.726.159-1.064H2.183v5.233c0 .271.222.491.492.491h8.626c.271 0 .492-.22.492-.491zM7.012 4.618c-1.374 0-2.488 1.08-2.488 2.411 0 1.33 1.114 2.41 2.488 2.41C8.386 9.44 9.5 8.36 9.5 7.03c0-1.332-1.114-2.41-2.488-2.41z" fill="#5b9724"/></svg>