<svg fill="none" height="16" width="18" xmlns="http://www.w3.org/2000/svg"><path d="M17.375 6.875h-.363s-1.912-3.664-1.93-3.688a.545.545 0 0 0-.468-.267H10.09V.807c0-.377-.283-.682-.66-.682h-.886c-.376 0-.704.305-.704.682V2.92H3.43a.545.545 0 0 0-.467.267c-.019.024-1.93 3.688-1.93 3.688H.739c-.375 0-.739.273-.739.648v.443a3.375 3.375 0 0 0 6.75 0v-.443c0-.375-.25-.648-.625-.648h-.363L4.27 4.011h3.57v9.614H4.045c-.376 0-.704.305-.704.682v.886c0 .377.328.682.704.682h9.887c.376 0 .659-.305.659-.682v-.886c0-.377-.283-.682-.66-.682h-3.84V4.011h3.684l-1.491 2.864h-.295c-.375 0-.739.273-.739.648v.443a3.375 3.375 0 1 0 6.75 0v-.443c0-.375-.25-.648-.625-.648zm-12.843 0H2.264l1.134-2.178zm8.982 0l1.134-2.178 1.134 2.178z" fill="#5b9724"/></svg>