<svg fill="none" height="22" width="26" xmlns="http://www.w3.org/2000/svg"><path d="M24.27 9.429h-.508s-2.67-5.118-2.696-5.152a.76.76 0 0 0-.653-.372h-6.318V.952c0-.526-.394-.952-.92-.952h-1.238c-.526 0-.985.426-.985.952v2.953H4.794a.76.76 0 0 0-.654.372c-.026.034-2.696 5.152-2.696 5.152h-.412c-.524 0-1.032.38-1.032.904v.62a4.714 4.714 0 0 0 9.429 0v-.62c0-.523-.35-.904-.873-.904h-.508l-2.083-4h4.987v13.428H5.651c-.526 0-.984.427-.984.953v1.238c0 .526.458.952.984.952h13.81c.525 0 .92-.426.92-.952V19.81c0-.526-.395-.953-.92-.953h-5.366V5.43h5.146l-2.083 4h-.412c-.524 0-1.032.38-1.032.904v.62a4.714 4.714 0 0 0 9.429 0v-.62c0-.523-.35-.904-.873-.904zm-17.94 0H3.162l1.584-3.043zm12.546 0l1.584-3.043 1.584 3.043z" fill="#5b9724"/></svg>