<svg fill="none" height="51" width="51" xmlns="http://www.w3.org/2000/svg"><clipPath id="a"><path d="M0 0h51v51H0z"/></clipPath><g clip-path="url(#a)"><path d="M51 25.5c0 8.42-6.8 15.3-15.3 15.3-8.42 0-15.3-6.88-15.3-15.3 0-8.419 6.8-15.3 15.219-15.3 8.58 0 15.38 6.881 15.38 15.3z" fill="#ffb600"/><path d="M35.7 10.2c8.419 0 15.3 6.881 15.3 15.3 0 8.42-6.8 15.3-15.3 15.3-8.42 0-15.3-6.88-15.3-15.3" fill="#f7981d"/><path d="M35.7 10.2c8.419 0 15.3 6.881 15.3 15.3 0 8.42-6.8 15.3-15.3 15.3" fill="#ff8500"/><path d="M15.138 10.2C6.8 10.281 0 17.081 0 25.5c0 8.42 6.8 15.3 15.3 15.3 3.967 0 7.529-1.538 10.281-3.966.567-.486 1.052-1.053 1.538-1.62h-3.157a18.664 18.664 0 0 1-1.133-1.538h5.423c.324-.485.648-1.052.89-1.619h-7.204a9.642 9.642 0 0 1-.647-1.619h8.419c.485-1.538.809-3.157.809-4.857 0-1.133-.162-2.186-.324-3.238h-9.39c.08-.567.243-1.052.405-1.619h8.419a9.642 9.642 0 0 0-.648-1.619h-7.124c.243-.567.567-1.052.89-1.62h5.424a7.694 7.694 0 0 0-1.214-1.618h-2.995a13.79 13.79 0 0 1 1.538-1.538c-2.671-2.51-6.314-3.967-10.281-3.967 0-.162 0-.162-.08-.162z" fill="#ff5050"/><path d="M0 25.5c0 8.419 6.8 15.3 15.3 15.3 3.967 0 7.529-1.538 10.281-3.967.567-.486 1.052-1.052 1.538-1.619h-3.157a18.664 18.664 0 0 1-1.133-1.538h5.423a10.28 10.28 0 0 0 .89-1.619h-7.204a9.642 9.642 0 0 1-.647-1.619h8.419c.485-1.538.809-3.157.809-4.857 0-1.134-.162-2.186-.324-3.238h-9.39c.08-.567.243-1.053.405-1.62h8.419a9.646 9.646 0 0 0-.648-1.618h-7.124c.243-.567.567-1.053.89-1.62h5.424a7.696 7.696 0 0 0-1.214-1.618h-2.995a13.79 13.79 0 0 1 1.538-1.539c-2.671-2.509-6.314-3.966-10.281-3.966h-.08" fill="#e52836"/><path d="M15.3 40.8c3.967 0 7.529-1.538 10.281-3.967.567-.486 1.052-1.052 1.538-1.619h-3.157a18.664 18.664 0 0 1-1.133-1.538h5.424c.323-.486.647-1.052.89-1.619h-7.205a9.642 9.642 0 0 1-.647-1.619h8.419c.485-1.538.81-3.157.81-4.857 0-1.134-.163-2.186-.325-3.238h-9.39c.08-.567.243-1.053.405-1.62h8.419a9.646 9.646 0 0 0-.648-1.618h-7.124c.243-.567.567-1.053.89-1.62h5.425a7.7 7.7 0 0 0-1.215-1.618h-2.995a13.79 13.79 0 0 1 1.538-1.539c-2.671-2.509-6.314-3.966-10.28-3.966h-.082" fill="#cb2026"/><path d="M20.724 29.386l.243-1.376c-.081 0-.243.08-.405.08-.567 0-.648-.323-.567-.485l.486-2.833h.89l.243-1.538h-.81l.162-.972h-1.619s-.971 5.343-.971 5.99c0 .972.567 1.377 1.295 1.377.486 0 .89-.162 1.053-.243zm.566-2.59c0 2.266 1.538 2.833 2.834 2.833 1.214 0 1.7-.243 1.7-.243l.323-1.538s-.89.405-1.7.405c-1.78 0-1.457-1.295-1.457-1.295h3.32s.242-1.053.242-1.458c0-1.052-.567-2.347-2.347-2.347-1.7-.162-2.915 1.619-2.915 3.643zm2.834-2.348c.89 0 .728 1.052.728 1.133h-1.78c0-.08.161-1.133 1.052-1.133zm10.281 4.938l.324-1.78s-.81.404-1.377.404c-1.133 0-1.619-.89-1.619-1.862 0-1.943.972-2.995 2.105-2.995.81 0 1.457.486 1.457.486l.243-1.7s-.971-.405-1.862-.405c-1.862 0-3.724 1.619-3.724 4.695 0 2.024.972 3.4 2.915 3.4.647 0 1.538-.243 1.538-.243zM11.819 22.99c-1.134 0-1.943.325-1.943.325l-.243 1.376s.729-.324 1.781-.324c.567 0 1.052.08 1.052.567 0 .323-.08.404-.08.404h-.729c-1.376 0-2.914.567-2.914 2.429 0 1.457.971 1.78 1.538 1.78 1.133 0 1.619-.728 1.7-.728l-.081.648h1.457l.648-4.452c0-1.943-1.62-2.024-2.186-2.024zm.324 3.644c0 .242-.162 1.538-1.134 1.538-.485 0-.647-.405-.647-.648 0-.405.243-.971 1.457-.971.243.08.324.08.324.08zm3.4 2.914c.405 0 2.428.08 2.428-2.105 0-2.024-1.943-1.619-1.943-2.429 0-.404.324-.566.891-.566.243 0 1.133.08 1.133.08l.243-1.456s-.567-.162-1.538-.162c-1.214 0-2.429.485-2.429 2.104 0 1.862 2.024 1.7 2.024 2.429 0 .486-.566.567-.971.567-.729 0-1.457-.243-1.457-.243l-.243 1.457c.08.162.486.324 1.862.324zm32.3-7.853l-.324 2.186s-.648-.81-1.538-.81c-1.457 0-2.753 1.781-2.753 3.886 0 1.295.648 2.672 2.024 2.672.972 0 1.538-.648 1.538-.648l-.08.567h1.618l1.215-7.772zm-.729 4.29c0 .891-.405 2.025-1.295 2.025-.567 0-.89-.486-.89-1.296 0-1.295.566-2.104 1.295-2.104.566 0 .89.404.89 1.376zM2.995 29.467l.972-5.829.161 5.829h1.134l2.105-5.829-.89 5.829h1.7l1.294-7.772H6.8l-1.62 4.776-.08-4.776H2.752l-1.295 7.772zm25.095 0c.486-2.671.567-4.857 1.7-4.452.162-1.053.405-1.457.567-1.862h-.324c-.728 0-1.295.971-1.295.971l.162-.89h-1.538l-1.053 6.314h1.781zm10.038-6.477c-1.133 0-1.942.325-1.942.325l-.243 1.376s.728-.324 1.78-.324c.567 0 1.053.08 1.053.567 0 .323-.08.404-.08.404h-.73c-1.376 0-2.914.567-2.914 2.429 0 1.457.972 1.78 1.538 1.78 1.134 0 1.62-.728 1.7-.728l-.08.648h1.457l.647-4.452c.081-1.943-1.619-2.024-2.186-2.024zm.405 3.644c0 .242-.162 1.538-1.133 1.538-.486 0-.648-.405-.648-.648 0-.405.243-.971 1.457-.971.243.08.243.08.324.08zm3.157 2.833c.486-2.671.567-4.857 1.7-4.452.162-1.053.405-1.457.567-1.862h-.324c-.728 0-1.295.971-1.295.971l.162-.89h-1.538l-1.053 6.314h1.781z" fill="#fff"/><path d="M18.214 28.253c0 .971.567 1.376 1.295 1.376.567 0 1.053-.162 1.215-.243l.242-1.376c-.08 0-.242.08-.404.08-.567 0-.648-.323-.567-.485l.486-2.833h.89l.243-1.538h-.81l.162-.972m1.134 4.534c0 2.266.728 2.833 2.024 2.833 1.214 0 1.7-.243 1.7-.243l.324-1.538s-.891.405-1.7.405c-1.781 0-1.458-1.295-1.458-1.295h3.32s.242-1.053.242-1.458c0-1.052-.566-2.347-2.347-2.347-1.7-.162-2.105 1.619-2.105 3.643zm2.024-2.348c.89 0 1.052 1.052 1.052 1.133h-2.105c0-.08.162-1.133 1.053-1.133zm10.281 4.938l.323-1.78s-.81.404-1.376.404c-1.133 0-1.619-.89-1.619-1.862 0-1.943.972-2.995 2.105-2.995.81 0 1.457.486 1.457.486l.243-1.7s-.971-.405-1.862-.405c-1.862 0-2.914 1.619-2.914 4.695 0 2.024.162 3.4 2.105 3.4.647 0 1.538-.243 1.538-.243zM9.633 24.772s.729-.324 1.781-.324c.567 0 1.053.081 1.053.567 0 .324-.081.405-.081.405h-.729c-1.376 0-2.914.566-2.914 2.428 0 1.457.971 1.781 1.538 1.781 1.133 0 1.619-.729 1.7-.729l-.081.648h1.457l.648-4.452c0-1.862-1.62-1.943-2.267-1.943zm3.32 1.862c0 .243-.972 1.538-1.944 1.538-.485 0-.647-.405-.647-.648 0-.405.243-.971 1.457-.971.243.08 1.133.08 1.133.08zm.809 2.752s.485.162 1.862.162c.404 0 2.428.08 2.428-2.105 0-2.024-1.943-1.619-1.943-2.429 0-.404.324-.566.89-.566.244 0 1.134.08 1.134.08l.243-1.456s-.567-.162-1.538-.162c-1.214 0-1.62.485-1.62 2.104 0 1.862 1.215 1.7 1.215 2.429 0 .486-.567.567-.971.567m32.058-4.129s-.649-.81-1.539-.81c-1.457 0-1.943 1.782-1.943 3.886 0 1.295-.162 2.672 1.214 2.672.972 0 1.538-.648 1.538-.648l-.08.567h1.619l1.214-7.772zm-.082 2.105c0 .89-.729 2.024-1.619 2.024-.567 0-.89-.486-.89-1.295 0-1.296.566-2.105 1.295-2.105.567 0 1.214.405 1.214 1.376zM2.995 29.467l.972-5.829.161 5.829h1.134l2.105-5.829-.89 5.829h1.7l1.294-7.772H7.448L5.18 26.471l-.08-4.776h-.89l-2.753 7.772zm23.395 0h1.7c.486-2.671.567-4.857 1.7-4.452.162-1.053.405-1.457.567-1.862h-.324c-.728 0-1.295.971-1.295.971l.162-.89m7.043 1.538s.728-.324 1.78-.324c.567 0 1.053.081 1.053.567 0 .324-.08.405-.08.405h-.73c-1.376 0-2.914.566-2.914 2.428 0 1.457.972 1.781 1.538 1.781 1.134 0 1.62-.729 1.7-.729l-.08.648h1.457l.647-4.452c0-1.862-1.619-1.943-2.267-1.943zm3.319 1.862c0 .243-.972 1.538-1.943 1.538-.486 0-.648-.405-.648-.648 0-.405.243-.971 1.457-.971.324.08 1.134.08 1.134.08zm.728 2.833h1.7c.486-2.671.567-4.857 1.7-4.452.162-1.053.405-1.457.567-1.862h-.324c-.728 0-1.295.971-1.295.971l.162-.89" fill="#dce5e5"/></g></svg>