<svg width="40" height="50" fill="none" xmlns="http://www.w3.org/2000/svg"><path d="M20 24.453c5.56 0 10.066-5.474 10.066-12.226C30.066 5.474 28.586 0 20 0S9.934 5.474 9.934 12.227c0 6.752 4.507 12.226 10.066 12.226zM.987 43.122c-.002-.411-.003-.116 0 0zm38.025.321c.006-.112.002-.782 0 0zm-.022-.815c-.186-11.763-1.722-15.115-13.478-17.237 0 0-1.655 2.109-5.512 2.109-3.857 0-5.512-2.109-5.512-2.109C2.86 27.49 1.23 30.791 1.016 42.246c-.018.935-.026.984-.029.875 0 .204.002.58.002 1.236C.989 44.357 3.787 50 20 50c16.212 0 19.011-5.643 19.011-5.643l.001-.914c-.003.067-.01-.063-.021-.815z" fill="#EDEDED"/></svg>