<svg fill="none" height="65" width="65" xmlns="http://www.w3.org/2000/svg"><path d="M23.833 41.837l3.302-18.571h5.159l-3.199 18.571z" fill="#3c58bf"/><path d="M23.833 41.837l4.23-18.571h4.23l-3.198 18.571z" fill="#293688"/><path d="M47.77 23.472c-1.032-.413-2.683-.825-4.746-.825-5.159 0-8.873 2.579-8.873 6.293 0 2.786 2.58 4.23 4.643 5.159 2.063.928 2.682 1.548 2.682 2.373 0 1.238-1.65 1.857-3.095 1.857-2.064 0-3.199-.31-4.952-1.032l-.723-.31-.722 4.23c1.238.517 3.508 1.033 5.881 1.033 5.468 0 9.08-2.58 9.08-6.5 0-2.167-1.342-3.818-4.437-5.16-1.857-.928-2.992-1.444-2.992-2.372 0-.826.929-1.65 2.992-1.65 1.754 0 2.992.309 3.92.721l.517.207z" fill="#3c58bf"/><path d="M47.77 23.472c-1.032-.413-2.683-.825-4.746-.825-5.159 0-7.945 2.579-7.945 6.293 0 2.786 1.651 4.23 3.715 5.159 2.063.928 2.682 1.548 2.682 2.373 0 1.238-1.65 1.857-3.095 1.857-2.064 0-3.199-.31-4.952-1.032l-.723-.31-.722 4.23c1.238.517 3.508 1.033 5.881 1.033 5.468 0 9.08-2.58 9.08-6.5 0-2.167-1.342-3.818-4.437-5.16-1.857-.928-2.992-1.444-2.992-2.372 0-.826.929-1.65 2.992-1.65 1.754 0 2.992.309 3.92.721l.517.207z" fill="#293688"/><path d="M56.643 23.266c-1.238 0-2.167.103-2.683 1.34l-7.738 17.231h5.572l1.031-3.095h6.603l.62 3.095H65l-4.333-18.571zm-2.373 12.38c.31-.928 2.063-5.468 2.063-5.468s.413-1.135.723-1.857l.309 1.754s1.032 4.643 1.238 5.675H54.27z" fill="#3c58bf"/><path d="M57.88 23.266c-1.237 0-2.166.103-2.682 1.34l-8.976 17.231h5.572l1.031-3.095h6.603l.62 3.095H65l-4.333-18.571zm-3.61 12.38c.412-1.031 2.063-5.468 2.063-5.468s.413-1.135.722-1.857l.31 1.754s1.032 4.643 1.238 5.675H54.27z" fill="#293688"/><path d="M14.341 36.266l-.515-2.683c-.93-3.095-3.921-6.5-7.223-8.15l4.643 16.508h5.572l8.357-18.572h-5.572z" fill="#3c58bf"/><path d="M14.341 36.266l-.515-2.683c-.93-3.095-3.921-6.5-7.223-8.15l4.643 16.508h5.572l8.357-18.572h-4.54z" fill="#293688"/><path d="M0 23.266l.929.206C7.532 25.02 12.07 28.94 13.825 33.583l-1.857-8.77c-.31-1.238-1.238-1.547-2.373-1.547z" fill="#ffbc00"/><path d="M0 23.266c6.603 1.547 12.071 5.571 13.825 10.214l-1.754-7.325c-.31-1.239-1.34-1.96-2.476-1.96z" fill="#f7981d"/><path d="M0 23.266c6.603 1.547 12.071 5.571 13.825 10.214l-1.238-4.024c-.31-1.238-.722-2.476-2.166-2.992z" fill="#ed7c00"/><path d="M19.5 35.647l-3.508-3.508-1.65 3.92-.413-2.579c-.929-3.095-3.921-6.5-7.223-8.15l4.643 16.507h5.572zm9.595 6.19l-4.436-4.54-.826 4.54zM40.96 35.44c.413.414.62.723.516 1.136 0 1.238-1.65 1.857-3.095 1.857-2.063 0-3.199-.31-4.952-1.032l-.723-.31-.722 4.23c1.238.517 3.508 1.033 5.881 1.033 3.302 0 5.984-.929 7.532-2.58zm5.984 6.398h4.85l1.031-3.096h6.603l.62 3.096H65l-1.754-7.532-6.19-5.984.309 1.65s1.032 4.643 1.238 5.675H54.27c.412-1.032 2.063-5.468 2.063-5.468s.413-1.135.722-1.857" fill="#051244"/></svg>